<?xml version="1.0" encoding="UTF-8"?>
<svg version="1.1" xmlns="http://www.w3.org/2000/svg" width="64" height="64">
<path d="M0 0 C21.12 0 42.24 0 64 0 C64 21.12 64 42.24 64 64 C42.88 64 21.76 64 0 64 C0 42.88 0 21.76 0 0 Z " fill="#E9ECEF" transform="translate(0,0)"/>
<path d="M0 0 C1.65 0 3.3 0 5 0 C5.33 3.63 5.66 7.26 6 11 C5.01 11.495 5.01 11.495 4 12 C3.67 17.94 3.34 23.88 3 30 C3.99 30 4.98 30 6 30 C6.33 35.61 6.66 41.22 7 47 C7.99 47.33 8.98 47.66 10 48 C11.6875 49.5625 11.6875 49.5625 13 51 C13.33 50.34 13.66 49.68 14 49 C14 49.99 14 50.98 14 52 C15.485 51.505 15.485 51.505 17 51 C17 51.99 17 52.98 17 54 C17.66 54 18.32 54 19 54 C18.81870185 50.56206661 18.81870185 50.56206661 18 47 C16.06402968 45.48705712 16.06402968 45.48705712 14 45 C13.67 45.99 13.34 46.98 13 48 C12.34 48 11.68 48 11 48 C11.66 46.35 12.32 44.7 13 43 C12.34 43 11.68 43 11 43 C9.70278551 39.10835652 9.86966007 36.10570774 10 32 C10.33 31.34 10.66 30.68 11 30 C12.65 30 14.3 30 16 30 C16 29.01 16 28.02 16 27 C15.01 27 14.02 27 13 27 C13 23.7 13 20.4 13 17 C13.99 17 14.98 17 16 17 C16.12117188 17.61488281 16.24234375 18.22976562 16.3671875 18.86328125 C16.53476562 19.67152344 16.70234375 20.47976562 16.875 21.3125 C17.03742187 22.11300781 17.19984375 22.91351562 17.3671875 23.73828125 C17.94478999 26.25301118 17.94478999 26.25301118 20 29 C21.65 29.33 23.3 29.66 25 30 C25 35.94 25 41.88 25 48 C24.01 48 23.02 48 22 48 C22 50.31 22 52.62 22 55 C23.485 55.495 23.485 55.495 25 56 C25 58.64 25 61.28 25 64 C16.75 64 8.5 64 0 64 C0 42.88 0 21.76 0 0 Z " fill="#E5DFD9" transform="translate(0,0)"/>
<path d="M0 0 C0.99 0 1.98 0 3 0 C3.33 0.99 3.66 1.98 4 3 C4.99 2.01 5.98 1.02 7 0 C6.979375 0.928125 6.95875 1.85625 6.9375 2.8125 C6.92703093 7.9004688 7.4878848 12.94286245 8 18 C7.34 18 6.68 18 6 18 C6 29.22 6 40.44 6 52 C-1.92 52 -9.84 52 -18 52 C-18.66 49.03 -19.32 46.06 -20 43 C-19.34 43 -18.68 43 -18 43 C-18 34.75 -18 26.5 -18 18 C-15.03 18 -12.06 18 -9 18 C-9.01160156 19.40894531 -9.02320313 20.81789063 -9.03515625 22.26953125 C-9.04453521 24.11718618 -9.0536353 25.96484253 -9.0625 27.8125 C-9.07087891 28.74126953 -9.07925781 29.67003906 -9.08789062 30.62695312 C-9.09111328 31.51962891 -9.09433594 32.41230469 -9.09765625 33.33203125 C-9.10289307 34.15421143 -9.10812988 34.9763916 -9.11352539 35.82348633 C-9.08741524 38.18172596 -9.08741524 38.18172596 -8 41 C-8.33 41.66 -8.66 42.32 -9 43 C-7.02 42.505 -7.02 42.505 -5 42 C-5 41.34 -5 40.68 -5 40 C-4.01 40 -3.02 40 -2 40 C-2 39.34 -2 38.68 -2 38 C-1.01 38 -0.02 38 1 38 C1 37.34 1 36.68 1 36 C1.99 36 2.98 36 4 36 C3.67 33.69 3.34 31.38 3 29 C2.21625 29.495 1.4325 29.99 0.625 30.5 C-2 32 -2 32 -4 32 C-4 27.05 -4 22.1 -4 17 C-2.68 17 -1.36 17 0 17 C0 16.34 0 15.68 0 15 C-0.66 15 -1.32 15 -2 15 C-4.32590854 11.36576791 -4.16265833 8.22911669 -4 4 C-2.68 3.34 -1.36 2.68 0 2 C0 1.34 0 0.68 0 0 Z " fill="#ECF2FA" transform="translate(53,12)"/>
<path d="M0 0 C0 4.62 0 9.24 0 14 C1.32 14 2.64 14 4 14 C4 9.38 4 4.76 4 0 C4.99 0 5.98 0 7 0 C7.33 0.66 7.66 1.32 8 2 C8.66 1.34 9.32 0.68 10 0 C10.99 0 11.98 0 13 0 C13 0.66 13 1.32 13 2 C12.01 2.66 11.02 3.32 10 4 C9.71472663 7.85119054 9.81917478 11.30992118 11 15 C11.66 15 12.32 15 13 15 C13 15.66 13 16.32 13 17 C11.68 17 10.36 17 9 17 C9 21.95 9 26.9 9 32 C10.65 31.01 12.3 30.02 14 29 C14.66 29 15.32 29 16 29 C16.33 31.31 16.66 33.62 17 36 C16.01 36 15.02 36 14 36 C14 36.66 14 37.32 14 38 C13.01 38 12.02 38 11 38 C11 38.66 11 39.32 11 40 C10.01 40 9.02 40 8 40 C8 40.66 8 41.32 8 42 C6.02 42.495 6.02 42.495 4 43 C3.1083624 37.18784382 2.99619258 31.853664 3.4375 26 C3.48970703 25.22527344 3.54191406 24.45054688 3.59570312 23.65234375 C3.72366902 21.76775513 3.86085596 19.88379629 4 18 C3.38511719 18.04640625 2.77023438 18.0928125 2.13671875 18.140625 C-4.51695582 18.43775879 -4.51695582 18.43775879 -7 16.1875 C-9.02175597 11.76490881 -9.72165173 7.81101151 -9 3 C-6.07812819 -0.46295918 -4.75130444 0 0 0 Z " fill="#D8CFC6" transform="translate(40,12)"/>
<path d="M0 0 C1.98 0 3.96 0 6 0 C5.96744792 1.98567708 5.93489583 3.97135417 5.90234375 5.95703125 C5.91736783 8.20305461 5.91736783 8.20305461 7 11 C7.33 7.37 7.66 3.74 8 0 C8.99 0 9.98 0 11 0 C11 0.99 11 1.98 11 3 C11.763125 2.505 12.52625 2.01 13.3125 1.5 C16 0 16 0 19 0 C19 0.66 19 1.32 19 2 C18.01 2.66 17.02 3.32 16 4 C15.59912669 5.90706576 15.59912669 5.90706576 15.75 8 C15.76546875 8.70125 15.7809375 9.4025 15.796875 10.125 C15.89956666 12.08936628 15.89956666 12.08936628 17 14 C17.33 11.03 17.66 8.06 18 5 C18.66 5 19.32 5 20 5 C20.33 6.32 20.66 7.64 21 9 C21.66 6.03 22.32 3.06 23 0 C23.99 0 24.98 0 26 0 C26.33848652 1.89492006 26.67056911 3.79098466 27 5.6875 C27.185625 6.74324219 27.37125 7.79898437 27.5625 8.88671875 C27.95068074 11.64904062 28.08259976 14.21742043 28 17 C27.34 16.67 26.68 16.34 26 16 C25.66666667 13.66666667 25.33333333 11.33333333 25 9 C24.34 8.67 23.68 8.34 23 8 C22.67 10.97 22.34 13.94 22 17 C20.02 17 18.04 17 16 17 C13.58314288 12.77050005 12.65166856 9.87664009 13 5 C12.01 5 11.02 5 10 5 C10 8.3 10 11.6 10 15 C10.99 15 11.98 15 13 15 C13 15.99 13 16.98 13 18 C11.35 18 9.7 18 8 18 C8 22.29 8 26.58 8 31 C8.66 31 9.32 31 10 31 C9.01 33.475 9.01 33.475 8 36 C8.99 35.01 9.98 34.02 11 33 C12.65 33.66 14.3 34.32 16 35 C16 37.31 16 39.62 16 42 C15.34 42 14.68 42 14 42 C13.67 41.34 13.34 40.68 13 40 C11.02111039 39.27306096 9.02045442 38.60183749 7 38 C7 37.34 7 36.68 7 36 C5.68 35.67 4.36 35.34 3 35 C3 29.39 3 23.78 3 18 C2.01 18 1.02 18 0 18 C0 12.06 0 6.12 0 0 Z " fill="#DFD7CF" transform="translate(3,12)"/>
<path d="M0 0 C0.99 0 1.98 0 3 0 C3.33 0.99 3.66 1.98 4 3 C4.99 2.01 5.98 1.02 7 0 C6.979375 0.928125 6.95875 1.85625 6.9375 2.8125 C6.92703093 7.9004688 7.4878848 12.94286245 8 18 C7.34 18 6.68 18 6 18 C6 23.94 6 29.88 6 36 C3.525 36.495 3.525 36.495 1 37 C2.485 36.505 2.485 36.505 4 36 C3.67 33.69 3.34 31.38 3 29 C2.21625 29.495 1.4325 29.99 0.625 30.5 C-2 32 -2 32 -4 32 C-4 27.05 -4 22.1 -4 17 C-2.68 17 -1.36 17 0 17 C0 16.34 0 15.68 0 15 C-0.66 15 -1.32 15 -2 15 C-4.32590854 11.36576791 -4.16265833 8.22911669 -4 4 C-2.68 3.34 -1.36 2.68 0 2 C0 1.34 0 0.68 0 0 Z " fill="#D5CAC0" transform="translate(53,12)"/>
<path d="M0 0 C1.65 0 3.3 0 5 0 C5 21.12 5 42.24 5 64 C3.35 64 1.7 64 0 64 C0 52.78 0 41.56 0 30 C0.66 30 1.32 30 2 30 C1.84402344 29.26394531 1.68804687 28.52789063 1.52734375 27.76953125 C1.23537109 26.30580078 1.23537109 26.30580078 0.9375 24.8125 C0.74027344 23.84957031 0.54304688 22.88664062 0.33984375 21.89453125 C-0.13648682 17.8375088 0.72167644 14.83497069 2 11 C1.34 11 0.68 11 0 11 C0 7.37 0 3.74 0 0 Z " fill="#EBF2FA" transform="translate(59,0)"/>
<path d="M0 0 C1.65 0 3.3 0 5 0 C5.33 3.63 5.66 7.26 6 11 C5.01 11.495 5.01 11.495 4 12 C3.67 17.94 3.34 23.88 3 30 C3.66 30 4.32 30 5 30 C5 41.22 5 52.44 5 64 C3.35 64 1.7 64 0 64 C0 42.88 0 21.76 0 0 Z " fill="#ECF1F9" transform="translate(0,0)"/>
<path d="M0 0 C0.99 0.33 1.98 0.66 3 1 C3.144375 2.11375 3.28875 3.2275 3.4375 4.375 C3.78372035 7.82142047 3.78372035 7.82142047 5 10 C5.01599436 11.4509942 4.9658149 12.90308507 4.87890625 14.3515625 C4.83056641 15.20234375 4.78222656 16.053125 4.73242188 16.9296875 C4.64831055 18.26386719 4.64831055 18.26386719 4.5625 19.625 C4.51029297 20.5221875 4.45808594 21.419375 4.40429688 22.34375 C4.2744565 24.56284012 4.13948661 26.78149871 4 29 C4.99 29 5.98 29 7 29 C7 29.99 7 30.98 7 32 C5.68 32 4.36 32 3 32 C3.33 35.96 3.66 39.92 4 44 C2.35 44 0.7 44 -1 44 C-1 41.36 -1 38.72 -1 36 C-2.32 35.67 -3.64 35.34 -5 35 C-4.67 32.69 -4.34 30.38 -4 28 C-3.01 28 -2.02 28 -1 28 C-1 22.06 -1 16.12 -1 10 C-2.65 10 -4.3 10 -6 10 C-6 9.67 -6 9.34 -6 9 C-4.35 9 -2.7 9 -1 9 C-0.67 6.03 -0.34 3.06 0 0 Z " fill="#E3DCD5" transform="translate(26,20)"/>
<path d="M0 0 C4.95 0 9.9 0 15 0 C15 3.63 15 7.26 15 11 C15.66 11.33 16.32 11.66 17 12 C12.375 15 12.375 15 9 15 C9 14.01 9 13.02 9 12 C8.01 12 7.02 12 6 12 C6 16.62 6 21.24 6 26 C3.35544005 22.03316008 2.71890813 18.84717515 3.4375 14.125 C3.623125 13.42375 3.80875 12.7225 4 12 C2.35 12 0.7 12 -1 12 C-0.34 11.67 0.32 11.34 1 11 C0.67 10.34 0.34 9.68 0 9 C-0.13559318 5.99525503 -0.04299016 3.00931153 0 0 Z " fill="#E6DDD5" transform="translate(5,0)"/>
<path d="M0 0 C4.95 0 9.9 0 15 0 C15 3.63 15 7.26 15 11 C15.66 11 16.32 11 17 11 C16.67 11.99 16.34 12.98 16 14 C15.67 13.67 15.34 13.34 15 13 C14.01 14.32 13.02 15.64 12 17 C12 15.35 12 13.7 12 12 C7.03088634 13.12697043 7.03088634 13.12697043 3 16 C3 14.68 3 13.36 3 12 C2.01 12 1.02 12 0 12 C0 8.04 0 4.08 0 0 Z " fill="#E6DED7" transform="translate(44,0)"/>
<path d="M0 0 C0.99 0 1.98 0 3 0 C3 0.99 3 1.98 3 3 C3.763125 2.505 4.52625 2.01 5.3125 1.5 C8 0 8 0 11 0 C11 0.66 11 1.32 11 2 C10.01 2.66 9.02 3.32 8 4 C7.59912669 5.90706576 7.59912669 5.90706576 7.75 8 C7.76546875 8.70125 7.7809375 9.4025 7.796875 10.125 C7.89956666 12.08936628 7.89956666 12.08936628 9 14 C9.33 11.03 9.66 8.06 10 5 C10.66 5 11.32 5 12 5 C12.33 6.32 12.66 7.64 13 9 C13.66 6.03 14.32 3.06 15 0 C15.99 0 16.98 0 18 0 C18.33848652 1.89492006 18.67056911 3.79098466 19 5.6875 C19.185625 6.74324219 19.37125 7.79898437 19.5625 8.88671875 C19.95068074 11.64904062 20.08259976 14.21742043 20 17 C19.34 16.67 18.68 16.34 18 16 C17.66666667 13.66666667 17.33333333 11.33333333 17 9 C16.34 8.67 15.68 8.34 15 8 C14.67 10.97 14.34 13.94 14 17 C12.02 17 10.04 17 8 17 C5.58314288 12.77050005 4.65166856 9.87664009 5 5 C4.01 5 3.02 5 2 5 C2 8.3 2 11.6 2 15 C2.99 15 3.98 15 5 15 C5 15.66 5 16.32 5 17 C3.35 16.67 1.7 16.34 0 16 C0 10.72 0 5.44 0 0 Z " fill="#8B7259" transform="translate(11,12)"/>
<path d="M0 0 C1.65 0 3.3 0 5 0 C5 5.94 5 11.88 5 18 C4.01 18 3.02 18 2 18 C2 20.31 2 22.62 2 25 C2.99 25.33 3.98 25.66 5 26 C5 28.64 5 31.28 5 34 C3.35 34 1.7 34 0 34 C0 22.78 0 11.56 0 0 Z " fill="#ECF2FA" transform="translate(20,30)"/>
<path d="M0 0 C1.32 0 2.64 0 4 0 C5.53316564 3.06633128 5.05758469 6.2669036 5 9.625 C4.94540781 15.18347769 5.08362901 20.50177409 6 26 C2.04 26.495 2.04 26.495 -2 27 C-2 26.34 -2 25.68 -2 25 C-1.34 25 -0.68 25 0 25 C0 16.75 0 8.5 0 0 Z " fill="#E6DED8" transform="translate(35,30)"/>
<path d="M0 0 C1.65 0 3.3 0 5 0 C5 8.58 5 17.16 5 26 C3.68 26 2.36 26 1 26 C0.34344611 17.31238511 -0.16311941 8.71782637 0 0 Z " fill="#EEF5FC" transform="translate(39,0)"/>
<path d="M0 0 C0.33 0 0.66 0 1 0 C1.33 5.61 1.66 11.22 2 17 C2.99 17.33 3.98 17.66 5 18 C5 23.28 5 28.56 5 34 C3.35 34 1.7 34 0 34 C0 22.78 0 11.56 0 0 Z " fill="#E6DFD9" transform="translate(5,30)"/>
<path d="M0 0 C0.66 0 1.32 0 2 0 C1.34 1.98 0.68 3.96 0 6 C0.66 6 1.32 6 2 6 C2.33 4.68 2.66 3.36 3 2 C5.64 2 8.28 2 11 2 C11 2.66 11 3.32 11 4 C9.68 4 8.36 4 7 4 C7.33 7.96 7.66 11.92 8 16 C6.35 16 4.7 16 3 16 C3 13.36 3 10.72 3 8 C1.68 7.67 0.36 7.34 -1 7 C-0.67 4.69 -0.34 2.38 0 0 Z " fill="#D8CEC6" transform="translate(22,48)"/>
<path d="M0 0 C0.33 2.31 0.66 4.62 1 7 C0.01 7 -0.98 7 -2 7 C-2 7.66 -2 8.32 -2 9 C-2.99 9 -3.98 9 -5 9 C-5 9.66 -5 10.32 -5 11 C-5.99 11 -6.98 11 -8 11 C-8 11.66 -8 12.32 -8 13 C-9.32 13.33 -10.64 13.66 -12 14 C-12.33 11.69 -12.66 9.38 -13 7 C-12.01 7.495 -12.01 7.495 -11 8 C-10.67 7.01 -10.34 6.02 -10 5 C-8.35 4.67 -6.7 4.34 -5 4 C-5 3.34 -5 2.68 -5 2 C-2 0 -2 0 0 0 Z " fill="#B4A699" transform="translate(56,41)"/>
<path d="M0 0 C1.65 0 3.3 0 5 0 C5.08107646 2.75059381 5.14052813 5.49879021 5.1875 8.25 C5.22520508 9.41595703 5.22520508 9.41595703 5.26367188 10.60546875 C5.33834499 16.42997175 5.33834499 16.42997175 3.48828125 19.546875 C2.99714844 20.02640625 2.50601563 20.5059375 2 21 C-0.20949832 16.58970217 -0.2370648 12.51059676 -0.125 7.6875 C-0.11597656 6.94693359 -0.10695312 6.20636719 -0.09765625 5.44335938 C-0.07424213 3.62876533 -0.03837615 1.81433929 0 0 Z " fill="#EDF4FD" transform="translate(39,30)"/>
<path d="M0 0 C0.99 0 1.98 0 3 0 C3.33848652 1.89492006 3.67056911 3.79098466 4 5.6875 C4.185625 6.74324219 4.37125 7.79898437 4.5625 8.88671875 C4.95068074 11.64904062 5.08259976 14.21742043 5 17 C4.34 16.67 3.68 16.34 3 16 C2.66666667 13.66666667 2.33333333 11.33333333 2 9 C1.34 8.67 0.68 8.34 0 8 C-0.33 10.97 -0.66 13.94 -1 17 C-1.99 17 -2.98 17 -4 17 C-4.33 13.04 -4.66 9.08 -5 5 C-4.34 5 -3.68 5 -3 5 C-2.67 6.32 -2.34 7.64 -2 9 C-1.34 6.03 -0.68 3.06 0 0 Z " fill="#8C725A" transform="translate(26,12)"/>
<path d="M0 0 C0 5.28 0 10.56 0 16 C-1.65 16 -3.3 16 -5 16 C-5 11.71 -5 7.42 -5 3 C-5.66 2.67 -6.32 2.34 -7 2 C-1.125 0 -1.125 0 0 0 Z " fill="#E6DED7" transform="translate(59,48)"/>
<path d="M0 0 C1.98 0 3.96 0 6 0 C5.979375 1.134375 5.95875 2.26875 5.9375 3.4375 C5.9293241 8.00782755 6.41308664 12.47238262 7 17 C6.34 16.67 5.68 16.34 5 16 C4.5859375 13.93359375 4.5859375 13.93359375 4.375 11.4375 C4.30023437 10.61121094 4.22546875 9.78492188 4.1484375 8.93359375 C4.09945313 8.29550781 4.05046875 7.65742188 4 7 C3.34 7 2.68 7 2 7 C2 10.3 2 13.6 2 17 C1.34 17 0.68 17 0 17 C0 11.39 0 5.78 0 0 Z " fill="#8B7057" transform="translate(3,12)"/>
<path d="M0 0 C1.65 0 3.3 0 5 0 C5 3.63 5 7.26 5 11 C5.66 11 6.32 11 7 11 C6.67 11.99 6.34 12.98 6 14 C5.67 13.67 5.34 13.34 5 13 C4.01 14.32 3.02 15.64 2 17 C2 15.35 2 13.7 2 12 C0.35 12 -1.3 12 -3 12 C-2.01 11.67 -1.02 11.34 0 11 C0 7.37 0 3.74 0 0 Z " fill="#E2DAD2" transform="translate(54,0)"/>
<path d="M0 0 C0.66 0 1.32 0 2 0 C2.33 0.66 2.66 1.32 3 2 C3.66 1.34 4.32 0.68 5 0 C5.99 0 6.98 0 8 0 C8 0.66 8 1.32 8 2 C7.01 2.66 6.02 3.32 5 4 C4.71472663 7.85119054 4.81917478 11.30992118 6 15 C6.66 15 7.32 15 8 15 C8 15.66 8 16.32 8 17 C4.125 15.125 4.125 15.125 3 14 C2.67 14.99 2.34 15.98 2 17 C1.34 17 0.68 17 0 17 C0 11.39 0 5.78 0 0 Z " fill="#A08870" transform="translate(45,12)"/>
<path d="M0 0 C1.65 0 3.3 0 5 0 C5 7.59 5 15.18 5 23 C2.21362367 18.8204355 3.20437488 16.85331323 4 12 C2.35 12 0.7 12 -1 12 C-0.34 11.67 0.32 11.34 1 11 C0.67 10.34 0.34 9.68 0 9 C-0.06950541 7.45976004 -0.08452357 5.91665012 -0.0625 4.375 C-0.05347656 3.55773437 -0.04445313 2.74046875 -0.03515625 1.8984375 C-0.02355469 1.27195313 -0.01195312 0.64546875 0 0 Z " fill="#E0D6CD" transform="translate(5,0)"/>
<path d="M0 0 C1.65 0 3.3 0 5 0 C5 3.63 5 7.26 5 11 C4.01 11.33 3.02 11.66 2 12 C1.67 16.62 1.34 21.24 1 26 C0.67 26 0.34 26 0 26 C0 17.42 0 8.84 0 0 Z " fill="#EDF3FB" transform="translate(10,0)"/>
<path d="M0 0 C2.475 0.495 2.475 0.495 5 1 C5 4.96 5 8.92 5 13 C3.35 13.66 1.7 14.32 0 15 C0 10.05 0 5.1 0 0 Z " fill="#EDF4FC" transform="translate(49,29)"/>
<path d="M0 0 C2.35119399 3.52679099 2.21443452 5.02879485 2.125 9.1875 C2.10695313 10.27417969 2.08890625 11.36085938 2.0703125 12.48046875 C2.03550781 13.72763672 2.03550781 13.72763672 2 15 C0.35 15 -1.3 15 -3 15 C-3 10.38 -3 5.76 -3 1 C-2.01 1.33 -1.02 1.66 0 2 C0 1.34 0 0.68 0 0 Z " fill="#EBF1F9" transform="translate(13,49)"/>
<path d="M0 0 C0.99 0.33 1.98 0.66 3 1 C3 5.29 3 9.58 3 14 C1.35 14 -0.3 14 -2 14 C-2.05410687 12.22950311 -2.09284119 10.45853151 -2.125 8.6875 C-2.14820313 7.70136719 -2.17140625 6.71523438 -2.1953125 5.69921875 C-2 3 -2 3 0 0 Z " fill="#ECF2FB" transform="translate(51,50)"/>
<path d="M0 0 C0.33 0.99 0.66 1.98 1 3 C1.99 2.67 2.98 2.34 4 2 C3.34 3.65 2.68 5.3 2 7 C2.99 6.01 3.98 5.02 5 4 C7.475 4.99 7.475 4.99 10 6 C10 8.31 10 10.62 10 13 C9.34 13 8.68 13 8 13 C7.67 12.34 7.34 11.68 7 11 C5.02111039 10.27306096 3.02045442 9.60183749 1 9 C1 8.34 1 7.68 1 7 C0.01 7 -0.98 7 -2 7 C-2 6.34 -2 5.68 -2 5 C-1.34 5 -0.68 5 0 5 C0 3.35 0 1.7 0 0 Z " fill="#B1A08F" transform="translate(9,41)"/>
<path d="M0 0 C0.33 0 0.66 0 1 0 C1 5.61 1 11.22 1 17 C-0.65 17 -2.3 17 -4 17 C-4 13.04 -4 9.08 -4 5 C-3.34 4.67 -2.68 4.34 -2 4 C-2 4.99 -2 5.98 -2 7 C-1.34 7 -0.68 7 0 7 C0 4.69 0 2.38 0 0 Z " fill="#E3DBD4" transform="translate(19,47)"/>
<path d="M0 0 C1.65 0 3.3 0 5 0 C5 3.63 5 7.26 5 11 C3.35 11.66 1.7 12.32 0 13 C0 8.71 0 4.42 0 0 Z " fill="#EBF2FB" transform="translate(30,0)"/>
<path d="M0 0 C1.32 0 2.64 0 4 0 C4 4.62 4 9.24 4 14 C3.67 13.34 3.34 12.68 3 12 C2.01 12.33 1.02 12.66 0 13 C-1.29721449 9.10835652 -1.13033993 6.10570774 -1 2 C-0.67 1.34 -0.34 0.68 0 0 Z " fill="#EDF3FC" transform="translate(11,30)"/>
<path d="M0 0 C1.65 0 3.3 0 5 0 C5 3.63 5 7.26 5 11 C3.35 11.33 1.7 11.66 0 12 C0 8.04 0 4.08 0 0 Z " fill="#ECF2FA" transform="translate(49,0)"/>
<path d="M0 0 C1.32 0 2.64 0 4 0 C4.33 3.96 4.66 7.92 5 12 C2.69 12.33 0.38 12.66 -2 13 C-1.67 12.34 -1.34 11.68 -1 11 C-0.7724985 9.12943209 -0.59037189 7.25314042 -0.4375 5.375 C-0.35371094 4.37210937 -0.26992188 3.36921875 -0.18359375 2.3359375 C-0.12300781 1.56507812 -0.06242187 0.79421875 0 0 Z " fill="#E1D7CE" transform="translate(35,0)"/>
<path d="M0 0 C0.66 0.33 1.32 0.66 2 1 C1.67 4.63 1.34 8.26 1 12 C-0.65 12 -2.3 12 -4 12 C-4 9.03 -4 6.06 -4 3 C-2.68 2.67 -1.36 2.34 0 2 C0 1.34 0 0.68 0 0 Z " fill="#E5DED7" transform="translate(48,52)"/>
<path d="M0 0 C0.99 1.485 0.99 1.485 2 3 C2.99 2.01 3.98 1.02 5 0 C4.979375 0.94875 4.95875 1.8975 4.9375 2.875 C4.92776526 7.61581985 5.46975991 12.29411917 6 17 C5.34 16.67 4.68 16.34 4 16 C3.5859375 13.93359375 3.5859375 13.93359375 3.375 11.4375 C3.30023438 10.61121094 3.22546875 9.78492188 3.1484375 8.93359375 C3.07496094 7.97646484 3.07496094 7.97646484 3 7 C2.34 7 1.68 7 1 7 C1 9.97 1 12.94 1 16 C0.67 16 0.34 16 0 16 C0 10.72 0 5.44 0 0 Z " fill="#7A5B3D" transform="translate(55,12)"/>
<path d="M0 0 C1.32 0 2.64 0 4 0 C4 3.63 4 7.26 4 11 C2.68 10.67 1.36 10.34 0 10 C-1.49106457 7.01787087 -1.11941467 4.28390342 -1 1 C-0.67 0.67 -0.34 0.34 0 0 Z " fill="#E9EEEF" transform="translate(50,15)"/>
<path d="M0 0 C0.99 0 1.98 0 3 0 C3 0.66 3 1.32 3 2 C2.01 2.66 1.02 3.32 0 4 C-0.40087331 5.90706576 -0.40087331 5.90706576 -0.25 8 C-0.22679688 9.051875 -0.22679688 9.051875 -0.203125 10.125 C-0.10043334 12.08936628 -0.10043334 12.08936628 1 14 C1.33 11.36 1.66 8.72 2 6 C2.33 6 2.66 6 3 6 C3 9.63 3 13.26 3 17 C1.68 16.67 0.36 16.34 -1 16 C-2.36271133 13.27457733 -2.16923601 11.03912726 -2.1875 8 C-2.20167969 6.9275 -2.21585938 5.855 -2.23046875 4.75 C-2 2 -2 2 0 0 Z " fill="#7A5B3E" transform="translate(19,12)"/>
<path d="M0 0 C0.99 0 1.98 0 3 0 C3 3.63 3 7.26 3 11 C2.01 11 1.02 11 0 11 C-1.62651522 7.74696956 -1.11453156 4.60774398 -1 1 C-0.67 0.67 -0.34 0.34 0 0 Z " fill="#EAE7E2" transform="translate(34,15)"/>
<path d="M0 0 C0.33 1.32 0.66 2.64 1 4 C1.99 3.67 2.98 3.34 4 3 C6 5 6 5 6.125 8.125 C6.08375 9.07375 6.0425 10.0225 6 11 C4.35 11 2.7 11 1 11 C0.67 7.37 0.34 3.74 0 0 Z " fill="#ECF2F9" transform="translate(29,53)"/>
<path d="M0 0 C1.65 0 3.3 0 5 0 C5.33 2.31 5.66 4.62 6 7 C3.36 7.33 0.72 7.66 -2 8 C-2 7.34 -2 6.68 -2 6 C-1.34 6 -0.68 6 0 6 C0 4.02 0 2.04 0 0 Z " fill="#A38D77" transform="translate(35,49)"/>
<path d="M0 0 C0 0.66 0 1.32 0 2 C-0.99 2 -1.98 2 -3 2 C-3.08121924 3.60332791 -3.13929134 5.20784026 -3.1875 6.8125 C-3.22230469 7.70582031 -3.25710937 8.59914063 -3.29296875 9.51953125 C-2.94565315 12.46013665 -2.16821204 13.10494854 0 15 C0 15.66 0 16.32 0 17 C-1.875 16.8125 -1.875 16.8125 -4 16 C-6.5348937 11.81742539 -6.45816734 7.73439586 -6 3 C-3.95950963 0.82347693 -2.99435075 0 0 0 Z " fill="#82674D" transform="translate(37,12)"/>
<path d="M0 0 C0.33 0 0.66 0 1 0 C1.33 3.96 1.66 7.92 2 12 C2.66 12 3.32 12 4 12 C3.67 12.99 3.34 13.98 3 15 C2.79102409 20.24862762 2.79102409 20.24862762 3.625 25.375 C3.74875 25.91125 3.8725 26.4475 4 27 C3.34 27.66 2.68 28.32 2 29 C0.3049249 19.1776452 -0.25068829 9.94396878 0 0 Z " fill="#E1E0DF" transform="translate(29,0)"/>
<path d="M0 0 C0.66 0 1.32 0 2 0 C2 4.62 2 9.24 2 14 C2.99 14 3.98 14 5 14 C5 14.66 5 15.32 5 16 C3.35 15.67 1.7 15.34 0 15 C0 10.05 0 5.1 0 0 Z " fill="#82654A" transform="translate(38,13)"/>
<path d="M0 0 C1.32 0.66 2.64 1.32 4 2 C3.34 2 2.68 2 2 2 C2 4.31 2 6.62 2 9 C0.68 9 -0.64 9 -2 9 C-2.33 6.69 -2.66 4.38 -3 2 C-2.01 1.34 -1.02 0.68 0 0 Z " fill="#E2D8D0" transform="translate(37,55)"/>
<path d="M0 0 C0.99 0 1.98 0 3 0 C3 0.66 3 1.32 3 2 C2.01 2.66 1.02 3.32 0 4 C-0.28527337 7.85119054 -0.18082522 11.30992118 1 15 C1.66 15 2.32 15 3 15 C3 15.66 3 16.32 3 17 C-0.875 15.125 -0.875 15.125 -2 14 C-2.12514928 12.02380553 -2.1757276 10.04261827 -2.1875 8.0625 C-2.20167969 6.98097656 -2.21585938 5.89945313 -2.23046875 4.78515625 C-2 2 -2 2 0 0 Z " fill="#7A5C40" transform="translate(50,12)"/>
<path d="M0 0 C0.33 0 0.66 0 1 0 C1.33 3.63 1.66 7.26 2 11 C3.65 11 5.3 11 7 11 C2.375 15 2.375 15 -1 15 C-1 14.01 -1 13.02 -1 12 C-1.66 11.67 -2.32 11.34 -3 11 C-2.01 11 -1.02 11 0 11 C0 7.37 0 3.74 0 0 Z " fill="#DAD2CB" transform="translate(15,0)"/>
<path d="M0 0 C2.64 0 5.28 0 8 0 C8 0.66 8 1.32 8 2 C7.0409375 2.1546875 7.0409375 2.1546875 6.0625 2.3125 C5.381875 2.539375 4.70125 2.76625 4 3 C3.67 3.99 3.34 4.98 3 6 C2.34 6 1.68 6 1 6 C1 5.34 1 4.68 1 4 C0.34 4 -0.32 4 -1 4 C-0.67 2.68 -0.34 1.36 0 0 Z " fill="#A89481" transform="translate(25,50)"/>
<path d="M0 0 C0.66 0.33 1.32 0.66 2 1 C2 1.66 2 2.32 2 3 C1.34 3 0.68 3 0 3 C-0.4640625 4.175625 -0.4640625 4.175625 -0.9375 5.375 C-2 8 -2 8 -3 10 C-3.66 10 -4.32 10 -5 10 C-5.33 7.69 -5.66 5.38 -6 3 C-5.01 3.495 -5.01 3.495 -4 4 C-3.67 3.01 -3.34 2.02 -3 1 C-2.01 0.67 -1.02 0.34 0 0 Z " fill="#A7927E" transform="translate(49,45)"/>
<path d="M0 0 C2 2 2 2 2.1953125 4.3828125 C2.17210937 5.28773437 2.14890625 6.19265625 2.125 7.125 C2.10695313 8.03507812 2.08890625 8.94515625 2.0703125 9.8828125 C2.03550781 10.93082031 2.03550781 10.93082031 2 12 C0.06645644 10.38192934 -0.91399811 9.52624963 -1.328125 6.9921875 C-1.11111111 1.11111111 -1.11111111 1.11111111 0 0 Z " fill="#E1DCD8" transform="translate(19,15)"/>
<path d="M0 0 C0.99 0.33 1.98 0.66 3 1 C2.44271087 4.34373475 1.64826111 7.03312999 0 10 C-1.98 10 -3.96 10 -6 10 C-6 9.67 -6 9.34 -6 9 C-4.35 9 -2.7 9 -1 9 C-0.67 6.03 -0.34 3.06 0 0 Z " fill="#D9D0C7" transform="translate(26,20)"/>
<path d="M0 0 C1.99097846 2.98646769 2.94124926 5.59687262 4 9 C3.34 9 2.68 9 2 9 C2 12.3 2 15.6 2 19 C1.67 19 1.34 19 1 19 C0.67 12.73 0.34 6.46 0 0 Z " fill="#E6DFDA" transform="translate(57,21)"/>
<path d="M0 0 C0.66 0 1.32 0 2 0 C2 1.65 2 3.3 2 5 C0.35 5.66 -1.3 6.32 -3 7 C-3.33 5.35 -3.66 3.7 -4 2 C-2.68 2 -1.36 2 0 2 C0 1.34 0 0.68 0 0 Z " fill="#CCC8C6" transform="translate(33,50)"/>
<path d="M0 0 C0.99 0.99 1.98 1.98 3 3 C2.34 4.65 1.68 6.3 1 8 C0.34 8 -0.32 8 -1 8 C-1.33 5.69 -1.66 3.38 -2 1 C-1.34 0.67 -0.68 0.34 0 0 Z " fill="#E3E7E9" transform="translate(42,48)"/>
<path d="M0 0 C0.33 1.32 0.66 2.64 1 4 C-1.64 4.33 -4.28 4.66 -7 5 C-7 4.34 -7 3.68 -7 3 C-2.61538462 0 -2.61538462 0 0 0 Z " fill="#B2A192" transform="translate(40,52)"/>
<path d="M0 0 C0.33 0 0.66 0 1 0 C1.04898438 0.77085938 1.09796875 1.54171875 1.1484375 2.3359375 C1.22320312 3.33882812 1.29796875 4.34171875 1.375 5.375 C1.44460937 6.37273438 1.51421875 7.37046875 1.5859375 8.3984375 C1.76363964 11.15508879 1.76363964 11.15508879 4 13 C2.68 13.33 1.36 13.66 0 14 C0 9.38 0 4.76 0 0 Z " fill="#E9ECF1" transform="translate(49,30)"/>
</svg>
